# xmcd
#
# Track frame offsets:
#	150
#	38873
#	43733
#	76280
#	81720
#	112288
#	126125
#	153388
#	190138
#	232451
#	253910
#	303988
#	335059
#
# Disc length: 4738 seconds
#
# Revision: 0
# Processed by: cddbd v1.5.1PL2 Copyright (c) Steve Scherf et al.
# Submitted via: MusicManager 7.2.0.0 
#
DISCID=c312800d
DTITLE=Tool - Lateralus
DYEAR=1900
DGENRE=Rock
TTITLE0=The Grudge
TTITLE1=Eon Blue Apocalypse
TTITLE2=The Patient
TTITLE3=Mantra
TTITLE4=Schism
TTITLE5=Parabol
TTITLE6=Parabola
TTITLE7=Ticks and Leeches
TTITLE8=Lateralus
TTITLE9=Disposition
TTITLE10=Reflection
TTITLE11=Triad
TTITLE12=Faaip De Olad
EXTD=
EXTT0=
EXTT1=
EXTT2=
EXTT3=
EXTT4=
EXTT5=
EXTT6=
EXTT7=
EXTT8=
EXTT9=
EXTT10=
EXTT11=
EXTT12=
PLAYORDER=
